<svg width="956" height="815" viewBox="0 0 956 815" fill="none" xmlns="http://www.w3.org/2000/svg">
<path fill-rule="evenodd" clip-rule="evenodd" d="M955.58 0.343704L955.609 15.7581C955.637 30.5022 955.695 60.6607 939.668 90.8499C922.971 121.04 890.86 151.93 882.205 182.106C874.221 212.279 891.033 242.406 887.069 272.572C882.435 302.74 858.366 332.944 858.424 363.103C858.481 393.261 882.667 424.044 903.5 454.163C923.663 484.283 940.475 514.41 911.715 544.623C882.954 574.837 809.961 605.134 789.913 635.331C769.195 665.529 802.093 696.296 818.235 726.423C834.377 756.551 834.434 786.71 834.462 801.454L834.492 816.868L1.55647 817.101L1.52707 801.686C1.49896 786.942 1.44145 756.784 1.38393 726.625C1.32642 696.467 1.26763 665.638 1.21012 635.48C1.15261 605.321 1.0951 575.163 1.03758 545.004C0.980072 514.845 0.92256 484.687 0.865048 454.528C0.807536 424.37 0.748746 393.541 0.691234 363.383C0.633722 333.224 0.57621 303.066 0.518698 272.907C0.461186 242.749 0.403674 212.59 0.346162 182.432C0.28865 152.273 0.22986 121.444 0.172348 91.2859C0.114836 61.1274 0.0573245 30.9689 0.0292075 16.2247L-0.000187459 0.810374L955.58 0.343704Z" fill="white"/>
</svg>
